HIERARCHY
ROOT Hips
{
	OFFSET 0.0000 0.0000 0.0000
	CHANNELS 6 Xposition Yposition Zposition Zrotation Xrotation Yrotation
	JOINT Spine1
	{
		OFFSET -0.0137 5.0038 -0.0537
		CHANNELS 3 Zrotation Xrotation Yrotation
		JOINT Spine2
		{
			OFFSET -0.0000 7.1253 -0.0298
			CHANNELS 3 Zrotation Xrotation Yrotation
			JOINT Chest
			{
				OFFSET -0.0000 7.5501 -0.8160
				CHANNELS 3 Zrotation Xrotation Yrotation
				JOINT Neck1
				{
					OFFSET -0.1817 26.3113 -0.5533
					CHANNELS 3 Zrotation Xrotation Yrotation
					JOINT Neck2
					{
						OFFSET -0.0000 7.7094 2.3026
						CHANNELS 3 Zrotation Xrotation Yrotation
						JOINT Head
						{
							OFFSET -0.0000 6.1289 1.9537
							CHANNELS 3 Zrotation Xrotation Yrotation
							JOINT Jaw
							{
								OFFSET 0.0026 0.4756 3.0949
								CHANNELS 3 Zrotation Xrotation Yrotation
								End Site
								{
									OFFSET 0.0 1.0 0.0
								}
							}
							JOINT LeftEye
							{
								OFFSET 3.2064 5.3802 7.5869
								CHANNELS 3 Zrotation Xrotation Yrotation
								End Site
								{
									OFFSET 0.0 1.0 0.0
								}
							}
							JOINT RightEye
							{
								OFFSET -3.2224 5.3619 7.5582
								CHANNELS 3 Zrotation Xrotation Yrotation
								End Site
								{
									OFFSET 0.0 1.0 0.0
								}
							}
						}
					}
				}
				JOINT LeftShoulder
				{
					OFFSET 1.6217 23.2372 5.1134
					CHANNELS 3 Zrotation Xrotation Yrotation
					JOINT LeftArm
					{
						OFFSET 14.9198 0.0000 -5.5023
						CHANNELS 3 Zrotation Xrotation Yrotation
						JOINT LeftForeArm
						{
							OFFSET 28.7393 0.0000 -0.0026
							CHANNELS 3 Zrotation Xrotation Yrotation
							JOINT LeftHand
							{
								OFFSET 27.0940 -0.0000 0.0026
								CHANNELS 3 Zrotation Xrotation Yrotation
								JOINT LeftHandThumbEnd
								{
									OFFSET 12.2686 -3.2202 4.8331
									CHANNELS 3 Zrotation Xrotation Yrotation
									End Site
									{
										OFFSET 0.0 1.0 0.0
									}
								}
								JOINT LeftHandMiddleEnd
								{
									OFFSET 19.0120 -0.3129 -0.0340
									CHANNELS 3 Zrotation Xrotation Yrotation
									End Site
									{
										OFFSET 0.0 1.0 0.0
									}
								}
							}
						}
					}
				}
				JOINT RightShoulder
				{
					OFFSET -1.3801 23.1803 5.2142
					CHANNELS 3 Zrotation Xrotation Yrotation
					JOINT RightArm
					{
						OFFSET -15.0372 0.0000 -5.5456
						CHANNELS 3 Zrotation Xrotation Yrotation
						JOINT RightForeArm
						{
							OFFSET -28.7366 0.0000 -0.0026
							CHANNELS 3 Zrotation Xrotation Yrotation
							JOINT RightHand
							{
								OFFSET -27.1336 -0.0000 0.0026
								CHANNELS 3 Zrotation Xrotation Yrotation
								JOINT RightHandThumbEnd
								{
									OFFSET -12.2642 -3.2115 4.8040
									CHANNELS 3 Zrotation Xrotation Yrotation
									End Site
									{
										OFFSET 0.0 1.0 0.0
									}
								}
								JOINT RightHandMiddleEnd
								{
									OFFSET -19.0006 -0.3066 -0.0316
									CHANNELS 3 Zrotation Xrotation Yrotation
									End Site
									{
										OFFSET 0.0 1.0 0.0
									}
								}
							}
						}
					}
				}
			}
		}
	}
	JOINT LeftLeg
	{
		OFFSET 10.0432 -8.4345 2.5957
		CHANNELS 3 Zrotation Xrotation Yrotation
		JOINT LeftShin
		{
			OFFSET -0.0000 -43.2218 -0.8029
			CHANNELS 3 Zrotation Xrotation Yrotation
			JOINT LeftFoot
			{
				OFFSET 0.0000 -42.1551 -3.4815
				CHANNELS 3 Zrotation Xrotation Yrotation
				JOINT LeftToeBase
				{
					OFFSET 0.0000 -5.0595 13.2315
					CHANNELS 3 Zrotation Xrotation Yrotation
					End Site
					{
						OFFSET 0.0 1.0 0.0
					}
				}
			}
		}
	}
	JOINT RightLeg
	{
		OFFSET -10.0473 -8.2953 2.6203
		CHANNELS 3 Zrotation Xrotation Yrotation
		JOINT RightShin
		{
			OFFSET 0.0000 -43.3622 -0.8056
			CHANNELS 3 Zrotation Xrotation Yrotation
			JOINT RightFoot
			{
				OFFSET 0.0000 -42.1174 -3.4784
				CHANNELS 3 Zrotation Xrotation Yrotation
				JOINT RightToeBase
				{
					OFFSET -0.0000 -5.0796 13.2842
					CHANNELS 3 Zrotation Xrotation Yrotation
					End Site
					{
						OFFSET 0.0 1.0 0.0
					}
				}
			}
		}
	}
}
MOTION
Frames: 12
Frame Time: 0.033333
0.5700 98.9444 -0.3757 0.9350 -1.3318 -0.4080 -0.5839 -0.6455 -0.3718 -0.6614 -5.0321 -0.9411 0.7020 9.7919 -3.1708 0.3499 8.2349 3.0428 -0.4605 -3.6005 0.0041 -0.1499 -1.9926 -1.2933 0.0023 0.0091 -0.0306 0.7637 -10.5630 -3.8935 -0.7599 -10.5620 3.8372 -20.3292 11.4577 -11.3603 -52.4436 4.0594 -11.0925 -0.3471 -0.0987 -32.4745 -1.1993 -10.7219 1.5707 -15.7805 10.6756 15.4960 -60.8540 2.0662 2.0978 29.2271 7.4084 17.0436 33.3084 -34.4683 0.9287 -1.2707 -0.2111 76.9167 -104.3909 -70.4158 85.9526 15.8833 6.9740 -15.7276 49.8067 -2.9750 -4.6635 6.4607 -5.9751 10.4380 -0.1166 13.0887 -0.2472 -9.1968 -5.7090 6.8210 1.6168 1.1630 -2.0344 -10.0577 -2.0578 -9.2860 -0.0552 9.8433 0.2309 10.9522 -5.1151 -4.8842 -1.4254 1.7645 0.8164
0.6145 98.9218 -0.3575 0.9518 -1.3539 -0.4733 -0.5824 -0.6390 -0.4146 -0.6527 -5.0175 -0.9295 0.6867 9.7827 -3.2031 0.3046 8.2334 3.0216 -0.4384 -3.6143 0.0826 -0.1681 -1.9576 -1.1668 0.0025 0.0041 -0.0375 0.7629 -10.5590 -3.8996 -0.7587 -10.5615 3.8277 -20.3421 11.4806 -11.3631 -52.4239 4.0652 -11.0785 -0.2838 -0.1019 -32.4873 -1.1528 -10.8311 1.5616 -15.7763 10.6647 15.4769 -60.8634 2.0496 2.1043 29.2318 7.4482 16.9468 33.2803 -34.0710 0.8174 -1.3681 -0.1820 77.0220 -104.3466 -70.5038 86.0239 15.8165 7.0267 -15.7034 49.7887 -2.9365 -4.6440 6.4353 -5.9305 10.4702 -0.1139 13.1001 -0.2407 -9.1982 -5.7375 6.8450 1.6200 1.1672 -2.0151 -10.1094 -2.0523 -9.2457 -0.0493 9.8595 0.2430 10.9990 -5.1005 -4.9011 -1.4250 1.7718 0.8128
0.6373 98.9264 -0.3341 0.9681 -1.3810 -0.5342 -0.5719 -0.6210 -0.4062 -0.6509 -5.0294 -0.9705 0.6592 9.8073 -3.2180 0.2818 8.2206 3.0057 -0.4074 -3.6183 0.1784 -0.2029 -1.9273 -1.0781 0.0031 0.0022 -0.0421 0.7622 -10.5695 -3.9046 -0.7568 -10.5726 3.8233 -20.3660 11.5194 -11.3703 -52.3835 4.0143 -10.9762 -0.2368 -0.1150 -32.5514 -1.0870 -10.9351 1.5607 -15.7616 10.6853 15.4659 -60.9064 2.0575 2.0999 29.2409 7.4953 16.9215 33.2948 -33.8631 0.6497 -1.3756 -0.1918 77.1240 -104.0690 -70.5498 85.8351 15.7384 7.0353 -15.7007 49.7229 -2.9252 -4.6387 6.4069 -5.9026 10.5180 -0.1158 13.1511 -0.2371 -9.1882 -5.7775 6.8671 1.6228 1.1699 -2.0039 -10.1437 -2.0487 -9.2067 -0.0519 9.9013 0.2531 11.0363 -5.1205 -4.9072 -1.4259 1.7689 0.8144
0.6513 98.9302 -0.3138 0.9793 -1.4012 -0.5398 -0.5662 -0.6123 -0.3944 -0.6511 -5.0370 -0.9996 0.6372 9.8307 -3.2321 0.2684 8.1976 2.9833 -0.3839 -3.6119 0.2499 -0.2371 -1.9288 -1.0027 0.0038 0.0062 -0.0462 0.7613 -10.5651 -3.9083 -0.7544 -10.5694 3.8190 -20.3925 11.5575 -11.3988 -52.3218 3.9089 -10.8255 -0.2325 -0.1230 -32.6287 -1.0229 -10.9766 1.5622 -15.7404 10.7124 15.4717 -60.9408 2.0685 2.0924 29.2633 7.5243 16.9069 33.3279 -33.7338 0.5237 -1.4258 -0.1456 77.2126 -104.0857 -70.5756 85.8839 15.7000 7.0452 -15.7052 49.6945 -2.9370 -4.6381 6.3795 -5.8956 10.5267 -0.1159 13.1983 -0.2359 -9.1782 -5.7993 6.8908 1.6252 1.1770 -2.0045 -10.1752 -2.0491 -9.2259 -0.0566 9.9394 0.2687 11.0481 -5.1315 -4.9009 -1.4274 1.7513 0.8126
0.6645 98.9505 -0.3014 0.9875 -1.4154 -0.5379 -0.5665 -0.6092 -0.3729 -0.6620 -5.0398 -1.0381 0.6267 9.8474 -3.2277 0.2584 8.1669 2.9883 -0.3724 -3.5964 0.2711 -0.2729 -1.9739 -0.9849 0.0056 0.0106 -0.0560 0.7613 -10.5609 -3.9188 -0.7507 -10.5666 3.8101 -20.4080 11.5713 -11.4034 -52.2830 3.8082 -10.6520 -0.2394 -0.1240 -32.7153 -0.9460 -10.9801 1.5774 -15.7087 10.7516 15.4979 -60.9572 2.0887 2.1137 29.3017 7.5196 16.9171 33.3817 -33.7081 0.4070 -1.4571 -0.0870 77.2788 -104.2805 -70.5625 86.1202 15.7182 7.0260 -15.7310 49.6687 -2.9444 -4.6535 6.3598 -5.8863 10.5237 -0.1144 13.2145 -0.2392 -9.1462 -5.7986 6.8855 1.6258 1.1699 -2.0152 -10.1993 -2.0458 -9.2385 -0.0618 9.9625 0.2796 11.0389 -5.1407 -4.9055 -1.4293 1.7338 0.8139
0.6690 98.9650 -0.3055 0.9859 -1.4106 -0.5170 -0.5753 -0.6165 -0.3517 -0.6750 -5.0373 -1.0518 0.6361 9.8566 -3.2157 0.2507 8.1242 3.0181 -0.3940 -3.5819 0.2467 -0.3005 -2.0120 -1.0152 0.0072 0.0128 -0.0618 0.7609 -10.5643 -3.9261 -0.7468 -10.5709 3.8048 -20.4111 11.5930 -11.4183 -52.2456 3.6699 -10.5017 -0.2898 -0.1329 -32.7775 -0.8795 -10.9617 1.5758 -15.7115 10.7744 15.5290 -61.0011 2.1019 2.1299 29.3390 7.5116 16.9497 33.4554 -33.7896 0.3151 -1.4856 -0.0529 77.3239 -104.6845 -70.5029 86.5564 15.7380 7.0079 -15.7397 49.6623 -2.9706 -4.6457 6.3500 -5.9038 10.5329 -0.1144 13.2410 -0.2492 -9.1009 -5.8072 6.8472 1.6249 1.1499 -2.0230 -10.1992 -2.0628 -9.2553 -0.0581 10.0011 0.2895 11.0144 -5.1668 -4.9201 -1.4312 1.7024 0.8197
0.6785 98.9617 -0.2950 0.9922 -1.3912 -0.4881 -0.5921 -0.6365 -0.3558 -0.6900 -5.0147 -1.0267 0.6496 9.8417 -3.2059 0.2405 8.0686 3.0597 -0.4320 -3.5777 0.1827 -0.3356 -2.0164 -1.0537 0.0082 0.0159 -0.0691 0.7627 -10.5511 -3.9341 -0.7468 -10.5587 3.7970 -20.4316 11.5705 -11.4190 -52.2130 3.6256 -10.4411 -0.3169 -0.1330 -32.7863 -0.8676 -10.9619 1.5741 -15.7284 10.8056 15.5474 -61.0454 2.1154 2.1403 29.3575 7.4593 16.9566 33.5624 -33.8976 0.2749 -1.5316 -0.0187 77.3524 -105.2848 -70.4126 87.1427 15.7936 6.9944 -15.7354 49.6948 -2.9775 -4.6480 6.3386 -5.9216 10.5217 -0.1111 13.2283 -0.2428 -9.0606 -5.8181 6.7875 1.6241 1.1498 -2.0209 -10.2030 -2.0863 -9.2826 -0.0561 10.0275 0.2921 11.0035 -5.2053 -4.9602 -1.4326 1.6958 0.8300
0.6714 98.9767 -0.2928 1.0047 -1.3719 -0.4599 -0.6154 -0.6445 -0.3273 -0.7021 -5.0071 -1.0259 0.6579 9.8333 -3.1675 0.2206 8.0097 3.0905 -0.4621 -3.5706 0.1290 -0.3812 -1.9883 -1.1011 0.0087 0.0201 -0.0725 0.7658 -10.5475 -3.9365 -0.7494 -10.5558 3.7927 -20.4338 11.5435 -11.4476 -52.2030 3.6253 -10.4029 -0.3344 -0.1475 -32.8031 -0.9019 -10.9553 1.6013 -15.7689 10.8340 15.5634 -61.0958 2.1372 2.1296 29.3835 7.3853 16.9843 33.6485 -34.1275 0.1989 -1.4557 -0.0660 77.3487 -105.6171 -70.2246 87.4986 15.8474 6.9752 -15.7191 49.7292 -2.9735 -4.6330 6.3193 -5.9436 10.5492 -0.1126 13.2164 -0.2456 -9.0425 -5.8359 6.7269 1.6233 1.1452 -2.0244 -10.2089 -2.1158 -9.3147 -0.0511 10.0535 0.2847 10.9810 -5.2624 -4.9502 -1.4341 1.6931 0.8425
0.6633 98.9656 -0.2857 1.0166 -1.3426 -0.3828 -0.6419 -0.6560 -0.3358 -0.7109 -4.9891 -0.9809 0.6618 9.8095 -3.1644 0.1801 7.9401 3.0865 -0.4694 -3.5728 0.1021 -0.4255 -1.9387 -1.0933 0.0081 0.0231 -0.0723 0.7677 -10.5325 -3.9349 -0.7525 -10.5407 3.7916 -20.4282 11.4825 -11.4412 -52.1953 3.7176 -10.4435 -0.3259 -0.1306 -32.7825 -0.9703 -10.9261 1.6365 -15.7906 10.8300 15.5699 -61.0794 2.1218 2.1458 29.3974 7.3143 17.0224 33.7073 -34.3631 0.1828 -1.4243 -0.0316 77.3453 -106.1028 -69.9871 87.9370 15.8813 6.9844 -15.7178 49.7638 -2.9572 -4.6453 6.3152 -5.9820 10.5844 -0.1113 13.1875 -0.2455 -9.0446 -5.8206 6.6357 1.6228 1.1600 -2.0291 -10.2090 -2.1255 -9.3875 -0.0453 10.0274 0.2908 10.9702 -5.2990 -4.9602 -1.4343 1.6897 0.8565
0.6608 98.9666 -0.3061 1.0177 -1.3227 -0.2984 -0.6639 -0.6591 -0.3217 -0.7152 -4.9898 -0.9439 0.6567 9.8033 -3.1798 0.1247 7.8998 3.0718 -0.4669 -3.5797 0.0580 -0.4873 -1.8623 -1.0730 0.0079 0.0225 -0.0670 0.7691 -10.5426 -3.9288 -0.7547 -10.5505 3.7971 -20.3981 11.4697 -11.4308 -52.1813 3.8029 -10.5040 -0.3312 -0.1335 -32.7788 -1.0031 -10.8969 1.6656 -15.8003 10.8123 15.5619 -61.0664 2.0902 2.1537 29.3816 7.2457 17.0911 33.7461 -34.6507 0.1643 -1.3441 -0.0294 77.3044 -106.6289 -69.7696 88.3633 15.9434 6.9915 -15.7106 49.8404 -2.9517 -4.6530 6.3108 -6.0229 10.6049 -0.1101 13.1781 -0.2370 -9.0325 -5.8126 6.5676 1.6201 1.1604 -2.0374 -10.1989 -2.1176 -9.4570 -0.0350 9.9882 0.3027 10.9752 -5.3239 -4.9445 -1.4320 1.6851 0.8674
0.6356 98.9659 -0.3119 1.0212 -1.3079 -0.2069 -0.6823 -0.6641 -0.3324 -0.7127 -4.9801 -0.8882 0.6321 9.7968 -3.2058 0.0849 7.8647 3.0662 -0.4659 -3.5884 -0.0211 -0.5467 -1.7807 -1.0563 0.0080 0.0198 -0.0620 0.7700 -10.5450 -3.9235 -0.7554 -10.5539 3.8019 -20.3960 11.4706 -11.4249 -52.1492 3.9041 -10.5690 -0.3142 -0.1320 -32.7376 -1.0155 -10.9474 1.6566 -15.7951 10.7886 15.5559 -61.0116 2.0502 2.1461 29.3444 7.1833 17.1649 33.7510 -34.9821 0.2098 -1.3021 -0.0046 77.2160 -106.9942 -69.6095 88.5699 15.9668 7.0094 -15.7225 49.8850 -2.9318 -4.6713 6.3058 -6.0346 10.6085 -0.1026 13.1231 -0.2308 -9.0169 -5.7884 6.4844 1.6195 1.1577 -2.0410 -10.1879 -2.0793 -9.5269 -0.0326 9.9022 0.3041 10.9773 -5.2846 -4.9772 -1.4282 1.6654 0.8738
0.6162 98.9718 -0.3075 1.0239 -1.3042 -0.1179 -0.6939 -0.6567 -0.3257 -0.7015 -4.9845 -0.8813 0.5970 9.7848 -3.1996 0.0735 7.8469 3.0438 -0.4826 -3.5903 -0.0633 -0.5962 -1.7079 -1.0814 0.0092 0.0152 -0.0590 0.7684 -10.5436 -3.9198 -0.7513 -10.5543 3.8054 -20.4213 11.5282 -11.4525 -52.0908 3.9757 -10.6389 -0.3016 -0.1314 -32.6894 -1.0038 -10.9729 1.6315 -15.8102 10.7661 15.5406 -60.9802 2.0231 2.1177 29.2871 7.1251 17.2524 33.7633 -35.3436 0.2842 -1.3103 -0.0171 77.0395 -107.1559 -69.4672 88.5990 15.9403 7.0317 -15.7490 49.8909 -2.9315 -4.6894 6.3105 -6.0169 10.6101 -0.1024 13.0319 -0.2426 -9.0075 -5.7425 6.4405 1.6191 1.1710 -2.0439 -10.1825 -2.0164 -9.5793 -0.0379 9.8019 0.3074 10.9842 -5.2394 -5.0294 -1.4251 1.6685 0.8795
